<mxfile host="65bd71144e">
    <diagram id="hf7tUSSGctodM-PZdDx_" name="Page-1">
        <mxGraphModel dx="1175" dy="463" grid="1" gridSize="10" guides="1" tooltips="1" connect="1" arrows="1" fold="1" page="1" pageScale="1" pageWidth="850" pageHeight="1100" math="0" shadow="0">
            <root>
                <mxCell id="0"/>
                <mxCell id="1" parent="0"/>
                <mxCell id="pM8h4kd1RZJodPii1csn-1" value="Utilisateur" style="shape=umlActor;verticalLabelPosition=bottom;verticalAlign=top;html=1;outlineConnect=0;" parent="1" vertex="1">
                    <mxGeometry x="30" y="120" width="30" height="60" as="geometry"/>
                </mxCell>
                <mxCell id="pM8h4kd1RZJodPii1csn-5" value="recréer instance Tamagochi" style="ellipse;whiteSpace=wrap;html=1;" parent="1" vertex="1">
                    <mxGeometry x="240" y="120" width="120" height="30" as="geometry"/>
                </mxCell>
                <mxCell id="pM8h4kd1RZJodPii1csn-15" value="" style="endArrow=none;html=1;exitX=0;exitY=0.5;exitDx=0;exitDy=0;entryX=0.5;entryY=0.5;entryDx=0;entryDy=0;entryPerimeter=0;" parent="1" source="8" target="pM8h4kd1RZJodPii1csn-1" edge="1">
                    <mxGeometry width="50" height="50" relative="1" as="geometry">
                        <mxPoint x="570" y="130" as="sourcePoint"/>
                        <mxPoint x="470" y="180" as="targetPoint"/>
                    </mxGeometry>
                </mxCell>
                <mxCell id="pM8h4kd1RZJodPii1csn-27" value="récupérer fichier de sauvegarde" style="ellipse;whiteSpace=wrap;html=1;" parent="1" vertex="1">
                    <mxGeometry x="580" y="120" width="140" height="50" as="geometry"/>
                </mxCell>
                <mxCell id="pM8h4kd1RZJodPii1csn-38" value="Charger partie" style="ellipse;whiteSpace=wrap;html=1;" parent="1" vertex="1">
                    <mxGeometry x="400" y="150" width="120" height="30" as="geometry"/>
                </mxCell>
                <mxCell id="pM8h4kd1RZJodPii1csn-39" value="" style="endArrow=openThin;html=1;exitX=1;exitY=1;exitDx=0;exitDy=0;entryX=0;entryY=0.5;entryDx=0;entryDy=0;dashed=1;endFill=0;" parent="1" source="pM8h4kd1RZJodPii1csn-5" target="pM8h4kd1RZJodPii1csn-38" edge="1">
                    <mxGeometry width="50" height="50" relative="1" as="geometry">
                        <mxPoint x="325.46" y="140" as="sourcePoint"/>
                        <mxPoint x="490.46" y="205" as="targetPoint"/>
                    </mxGeometry>
                </mxCell>
                <mxCell id="pM8h4kd1RZJodPii1csn-40" value="&amp;lt;&amp;lt;include&amp;gt;&amp;gt;" style="edgeLabel;html=1;align=center;verticalAlign=middle;resizable=0;points=[];labelBackgroundColor=none;" parent="pM8h4kd1RZJodPii1csn-39" vertex="1" connectable="0">
                    <mxGeometry x="0.1307" y="-2" relative="1" as="geometry">
                        <mxPoint x="-25" y="3" as="offset"/>
                    </mxGeometry>
                </mxCell>
                <mxCell id="4" value="" style="endArrow=openThin;html=1;exitX=1;exitY=0.5;exitDx=0;exitDy=0;dashed=1;endFill=0;entryX=0;entryY=1;entryDx=0;entryDy=0;" parent="1" source="pM8h4kd1RZJodPii1csn-38" target="pM8h4kd1RZJodPii1csn-27" edge="1">
                    <mxGeometry width="50" height="50" relative="1" as="geometry">
                        <mxPoint x="565.46" y="135" as="sourcePoint"/>
                        <mxPoint x="565.46" y="230" as="targetPoint"/>
                    </mxGeometry>
                </mxCell>
                <mxCell id="5" value="&amp;lt;&amp;lt;include&amp;gt;&amp;gt;" style="edgeLabel;html=1;align=center;verticalAlign=middle;resizable=0;points=[];labelBackgroundColor=none;" parent="4" vertex="1" connectable="0">
                    <mxGeometry x="0.1307" y="-2" relative="1" as="geometry">
                        <mxPoint x="-20" y="-17" as="offset"/>
                    </mxGeometry>
                </mxCell>
                <mxCell id="6" value="" style="endArrow=openThin;html=1;exitX=1;exitY=0.5;exitDx=0;exitDy=0;entryX=0;entryY=0.5;entryDx=0;entryDy=0;dashed=1;endFill=0;startArrow=none;" parent="1" source="8" target="pM8h4kd1RZJodPii1csn-5" edge="1">
                    <mxGeometry width="50" height="50" relative="1" as="geometry">
                        <mxPoint x="199.9989160788581" y="177.7757316004792" as="sourcePoint"/>
                        <mxPoint x="217.37" y="222.22" as="targetPoint"/>
                    </mxGeometry>
                </mxCell>
                <mxCell id="7" value="&amp;lt;&amp;lt;include&amp;gt;&amp;gt;" style="edgeLabel;html=1;align=center;verticalAlign=middle;resizable=0;points=[];labelBackgroundColor=none;" parent="6" vertex="1" connectable="0">
                    <mxGeometry x="0.1307" y="-2" relative="1" as="geometry">
                        <mxPoint x="-13" y="-23" as="offset"/>
                    </mxGeometry>
                </mxCell>
                <mxCell id="8" value="Reprendre une partie" style="ellipse;whiteSpace=wrap;html=1;" parent="1" vertex="1">
                    <mxGeometry x="70" y="130" width="130" height="40" as="geometry"/>
                </mxCell>
                <mxCell id="11" value="S'occuper&lt;br&gt;&amp;nbsp;Tamagotchi" style="ellipse;whiteSpace=wrap;html=1;" parent="1" vertex="1">
                    <mxGeometry x="250" y="200" width="120" height="40" as="geometry"/>
                </mxCell>
                <mxCell id="12" value="" style="endArrow=openThin;html=1;exitX=1;exitY=0.5;exitDx=0;exitDy=0;entryX=0;entryY=0.5;entryDx=0;entryDy=0;dashed=1;endFill=0;startArrow=none;" parent="1" source="8" target="11" edge="1">
                    <mxGeometry width="50" height="50" relative="1" as="geometry">
                        <mxPoint x="210" y="160" as="sourcePoint"/>
                        <mxPoint x="250" y="145" as="targetPoint"/>
                    </mxGeometry>
                </mxCell>
                <mxCell id="13" value="&amp;lt;&amp;lt;include&amp;gt;&amp;gt;" style="edgeLabel;html=1;align=center;verticalAlign=middle;resizable=0;points=[];labelBackgroundColor=none;" parent="12" vertex="1" connectable="0">
                    <mxGeometry x="0.1307" y="-2" relative="1" as="geometry">
                        <mxPoint x="-25" y="-2" as="offset"/>
                    </mxGeometry>
                </mxCell>
                <mxCell id="16" value="" style="endArrow=openThin;html=1;exitX=1;exitY=0.5;exitDx=0;exitDy=0;entryX=0;entryY=0.5;entryDx=0;entryDy=0;dashed=1;endFill=0;startArrow=none;" parent="1" source="11" target="18" edge="1">
                    <mxGeometry width="50" height="50" relative="1" as="geometry">
                        <mxPoint x="365" y="240" as="sourcePoint"/>
                        <mxPoint x="415" y="315" as="targetPoint"/>
                    </mxGeometry>
                </mxCell>
                <mxCell id="17" value="&amp;lt;&amp;lt;include&amp;gt;&amp;gt;" style="edgeLabel;html=1;align=center;verticalAlign=middle;resizable=0;points=[];labelBackgroundColor=none;" parent="16" vertex="1" connectable="0">
                    <mxGeometry x="0.1307" y="-2" relative="1" as="geometry">
                        <mxPoint x="-19" y="7" as="offset"/>
                    </mxGeometry>
                </mxCell>
                <mxCell id="18" value="Choisir Action" style="ellipse;whiteSpace=wrap;html=1;" parent="1" vertex="1">
                    <mxGeometry x="440" y="220" width="120" height="30" as="geometry"/>
                </mxCell>
                <mxCell id="19" value="Vérification Validité Action" style="ellipse;whiteSpace=wrap;html=1;" parent="1" vertex="1">
                    <mxGeometry x="630" y="210" width="150" height="40" as="geometry"/>
                </mxCell>
                <mxCell id="20" value="" style="endArrow=openThin;html=1;entryX=0;entryY=0.5;entryDx=0;entryDy=0;dashed=1;endFill=0;startArrow=none;exitX=1;exitY=0.5;exitDx=0;exitDy=0;" parent="1" source="18" target="19" edge="1">
                    <mxGeometry width="50" height="50" relative="1" as="geometry">
                        <mxPoint x="580" y="210" as="sourcePoint"/>
                        <mxPoint x="450" y="245" as="targetPoint"/>
                    </mxGeometry>
                </mxCell>
                <mxCell id="21" value="&amp;lt;&amp;lt;include&amp;gt;&amp;gt;" style="edgeLabel;html=1;align=center;verticalAlign=middle;resizable=0;points=[];labelBackgroundColor=none;" parent="20" vertex="1" connectable="0">
                    <mxGeometry x="0.1307" y="-2" relative="1" as="geometry">
                        <mxPoint x="-19" y="7" as="offset"/>
                    </mxGeometry>
                </mxCell>
                <mxCell id="22" value="Sauvegarder partie" style="ellipse;whiteSpace=wrap;html=1;" parent="1" vertex="1">
                    <mxGeometry x="230" y="300" width="120" height="30" as="geometry"/>
                </mxCell>
                <mxCell id="23" value="" style="endArrow=openThin;html=1;exitX=1;exitY=0.5;exitDx=0;exitDy=0;entryX=0;entryY=0.5;entryDx=0;entryDy=0;dashed=1;endFill=0;startArrow=none;" parent="1" source="8" target="22" edge="1">
                    <mxGeometry width="50" height="50" relative="1" as="geometry">
                        <mxPoint x="210" y="160" as="sourcePoint"/>
                        <mxPoint x="260" y="235" as="targetPoint"/>
                    </mxGeometry>
                </mxCell>
                <mxCell id="24" value="&amp;lt;&amp;lt;include&amp;gt;&amp;gt;" style="edgeLabel;html=1;align=center;verticalAlign=middle;resizable=0;points=[];labelBackgroundColor=none;" parent="23" vertex="1" connectable="0">
                    <mxGeometry x="0.1307" y="-2" relative="1" as="geometry">
                        <mxPoint x="-25" y="-2" as="offset"/>
                    </mxGeometry>
                </mxCell>
                <mxCell id="25" value="Mort Tamagotchi" style="ellipse;whiteSpace=wrap;html=1;" vertex="1" parent="1">
                    <mxGeometry x="360" y="260" width="120" height="40" as="geometry"/>
                </mxCell>
                <mxCell id="26" value="" style="endArrow=openThin;html=1;exitX=0;exitY=0.5;exitDx=0;exitDy=0;entryX=0.5;entryY=1;entryDx=0;entryDy=0;dashed=1;endFill=0;startArrow=none;" edge="1" parent="1" source="25" target="11">
                    <mxGeometry width="50" height="50" relative="1" as="geometry">
                        <mxPoint x="560" y="285" as="sourcePoint"/>
                        <mxPoint x="630" y="300" as="targetPoint"/>
                    </mxGeometry>
                </mxCell>
                <mxCell id="27" value="&amp;lt;&amp;lt;extend&amp;gt;&amp;gt;" style="edgeLabel;html=1;align=center;verticalAlign=middle;resizable=0;points=[];labelBackgroundColor=none;" vertex="1" connectable="0" parent="26">
                    <mxGeometry x="0.1307" y="-2" relative="1" as="geometry">
                        <mxPoint x="-33" y="7" as="offset"/>
                    </mxGeometry>
                </mxCell>
            </root>
        </mxGraphModel>
    </diagram>
</mxfile>